<?xml version="1.0" encoding="UTF-8" standalone="no"?>
<!-- Created with Inkscape (http://www.inkscape.org/) -->

<svg
   xmlns:dc="http://purl.org/dc/elements/1.1/"
   xmlns:cc="http://creativecommons.org/ns#"
   xmlns:rdf="http://www.w3.org/1999/02/22-rdf-syntax-ns#"
   xmlns:svg="http://www.w3.org/2000/svg"
   xmlns="http://www.w3.org/2000/svg"
   xmlns:sodipodi="http://sodipodi.sourceforge.net/DTD/sodipodi-0.dtd"
   xmlns:inkscape="http://www.inkscape.org/namespaces/inkscape"
   id="svg3132"
   viewBox="0 0 9665.5 2743.6"
   version="1.1"
   inkscape:version="0.48.4 r9939"
   width="100%"
   height="100%"
   sodipodi:docname="wac-logo.svg">
  <defs
     id="defs84" />
  <sodipodi:namedview
     pagecolor="#ffffff"
     bordercolor="#666666"
     borderopacity="1"
     objecttolerance="10"
     gridtolerance="10"
     guidetolerance="10"
     inkscape:pageopacity="0"
     inkscape:pageshadow="2"
     inkscape:window-width="1280"
     inkscape:window-height="776"
     id="namedview82"
     showgrid="false"
     inkscape:zoom="0.41475674"
     inkscape:cx="1861.0712"
     inkscape:cy="451.48119"
     inkscape:window-x="0"
     inkscape:window-y="24"
     inkscape:window-maximized="1"
     inkscape:current-layer="svg3132" />
  <metadata
     id="metadata3137">
    <rdf:RDF>
      <cc:Work
         rdf:about="">
        <dc:format>image/svg+xml</dc:format>
        <dc:type
           rdf:resource="http://purl.org/dc/dcmitype/StillImage" />
        <dc:title></dc:title>
      </cc:Work>
    </rdf:RDF>
  </metadata>
  <g
     transform="translate(-1054.218,-1023.3947)"
     id="g3193">
    <path
       style="fill:#808080"
       inkscape:connector-curvature="0"
       d="m 2613.7,3761.1 c -37.864,-5.2133 -69.234,-20.922 -95.08,-47.613 -23.943,-24.725 -37.788,-53.162 -43.02,-88.36 -2.0269,-13.635 -1.53,-41.295 0.9958,-55.431 7.9062,-44.247 32.629,-81.568 70.104,-105.82 21.655,-14.017 46.066,-22.144 74.5,-24.802 26.119,-2.4423 59.199,3.0306 84.411,13.966 16.622,7.2093 30.193,16.439 44.96,30.578 11.175,10.7 27.55,32.428 25.775,34.202 -0.2761,0.2761 -5.2599,1.7785 -11.075,3.3385 l -10.573,2.8365 -2.6894,-3.6814 c -8.3041,-11.367 -11.193,-14.748 -19.103,-22.355 -18.092,-17.398 -41.001,-29.093 -68.601,-35.017 -13.416,-2.88 -40.356,-3.1175 -54.604,-0.4815 -31.68,5.861 -62.369,23.3 -80.153,45.545 -22.304,27.9 -33.24,62.355 -31.513,99.289 2.4586,52.578 30.384,96.565 75.166,118.4 18.181,8.8639 32.964,12.87 52.908,14.34 33.84,2.4933 66.77,-6.2813 96.049,-25.593 13.272,-8.7539 28.563,-24.007 34.873,-34.786 l 4.6706,-7.9787 v -25.071 c 0,-18.166 -0.3305,-25.401 -1.2,-26.271 -0.9002,-0.9002 -13.267,-1.2 -49.5,-1.2 h -48.3 v -9.5 -9.5 h 59.5 59.5 v 78.5 78.5 h -10.082 -10.082 l 0.268,-25.688 c 0.2017,-19.342 -0.03,-25.787 -0.9364,-26.089 -0.6624,-0.2208 -5.8086,4.2658 -11.436,9.9701 -22.733,23.044 -48.222,37.115 -79.47,43.872 -7.6167,1.647 -14.155,2.1868 -29.761,2.4567 -11,0.1903 -22.925,-0.057 -26.5,-0.549 z"
       id="path3188" />
    <path
       style="fill:#808080"
       inkscape:connector-curvature="0"
       d="m 4689.2,3760.6 c -35.214,-5.7078 -62.445,-18.922 -86.346,-41.901 -17.509,-16.834 -29.293,-33.653 -37.319,-53.265 -18.064,-44.142 -16.452,-98.126 4.1663,-139.51 18.606,-37.346 52.882,-66.883 91.971,-79.253 50.219,-15.892 104.55,-8.5512 146.5,19.792 11.775,7.9564 34.014,30.177 41.942,41.906 3.2495,4.8077 5.6416,9.008 5.3157,9.3339 -0.833,0.833 -18.81,5.3804 -21.366,5.4047 -1.4546,0.014 -3.2285,-1.667 -5.7201,-5.4196 -17.973,-27.069 -48.812,-46.936 -84.983,-54.748 -14.575,-3.1477 -42.613,-3.1375 -57.377,0.021 -57.264,12.25 -96.192,52.17 -106.94,109.67 -2.7633,14.779 -2.5356,43.235 0.4575,57.188 13.458,62.737 60.088,103.73 124.42,109.38 51.174,4.4924 104.15,-21.944 128.91,-64.33 2.3244,-3.9795 4.332,-7.3893 4.4613,-7.5774 0.4259,-0.6195 23.384,6.053 23.384,6.7963 0,1.1748 -9.3122,16.327 -14.58,23.723 -2.6724,3.7523 -8.6977,10.818 -13.389,15.7 -23.034,23.972 -50.128,38.798 -83.53,45.707 -13.366,2.7647 -46.715,3.536 -59.973,1.3871 z"
       id="path3186" />
    <path
       style="fill:#808080"
       inkscape:connector-curvature="0"
       d="m 6494.7,3761.1 c -34.612,-4.7116 -65.428,-19.314 -89.938,-42.619 -23.967,-22.788 -38.885,-49.682 -46.242,-83.364 -2.0476,-9.3743 -2.2913,-13.127 -2.2731,-35 0.022,-26.93 1.0591,-34.432 7.4684,-54.046 14.939,-45.714 52.523,-83.347 98.66,-98.789 21.355,-7.1473 45.194,-10.101 66.496,-8.2388 44.109,3.8557 75.86,17.918 103.87,46.001 11.23,11.26 24.962,28.845 24.962,31.964 0,1.0142 -4.0679,2.3823 -16.228,5.4581 l -5.7285,1.4489 -3.6581,-5.1495 c -14.675,-20.657 -29.794,-33.506 -52.05,-44.235 -20.484,-9.8744 -38.726,-13.914 -62.835,-13.914 -29.858,0 -55.253,7.3502 -78.74,22.79 -20.456,13.448 -33.825,29.075 -45.222,52.863 -29.758,62.108 -11.52,140.34 41.51,178.04 14.716,10.464 35.882,19.616 53.84,23.278 24.132,4.9221 52.953,3.2079 77.112,-4.5864 10.466,-3.3765 31.816,-14.175 40.906,-20.69 14.622,-10.479 27.724,-24.637 33.701,-36.418 2.3334,-4.5988 2.3932,-5.3373 2.3932,-29.55 0,-17.981 -0.3311,-25.164 -1.2,-26.033 -0.9002,-0.9002 -13.267,-1.2 -49.5,-1.2 h -48.3 v -9.5 -9.5 h 59.5 59.5 v 78.5 78.5 h -10.106 -10.106 l 0.3561,-25.227 c 0.3205,-22.712 0.1932,-25.26 -1.2766,-25.551 -0.9942,-0.1969 -5.8821,3.9001 -12.5,10.477 -22.599,22.461 -46.91,35.676 -77.867,42.328 -7.8512,1.687 -14.298,2.2231 -30,2.4947 -11,0.1903 -22.925,-0.052 -26.5,-0.5388 z"
       id="path3184" />
    <path
       id="path3180"
       style="fill:#808080;fill-opacity:1"
       d="m 8821.2,3738.4 c 18.765,-2.8961 40.341,-11.379 56.375,-22.164 39.931,-26.859 62.531,-76.725 58.153,-128.31 -3.7445,-44.113 -25.198,-82.027 -59.025,-104.31 -15.169,-9.9932 -34.866,-17.888 -53.003,-21.243 -14.436,-2.6709 -41.166,-2.4002 -55,0.557 -27.247,5.8245 -49.502,17.175 -67.778,34.567 -43.21,41.12 -54.502,113.21 -26.477,169.03 18.13,36.111 49.199,60.311 90.075,70.161 17.764,4.2807 36.38,4.8421 56.68,1.7092 z m -47,22.6 c -15.733,-2.0012 -38.802,-8.985 -52.62,-15.929 -10.656,-5.3554 -26.65,-16.895 -36.819,-26.564 -23.73,-22.563 -39.152,-50.307 -46.062,-82.864 -2.756,-12.984 -3.8234,-42.89 -2.0394,-57.14 5.3788,-42.964 25.795,-79.48 59.345,-106.14 20.492,-16.284 44.331,-26.594 73.696,-31.872 14.014,-2.5189 42.721,-2.2822 58.081,0.4788 34.187,6.1454 61.098,20.192 85.459,44.605 23.609,23.66 36.491,47.379 43.484,80.068 3.0669,14.335 3.8337,43.714 1.553,59.5 -5.2617,36.418 -19.328,64.832 -44.552,90 -13.143,13.113 -23.446,20.792 -38.224,28.489 -17.199,8.958 -33.254,14.104 -52.93,16.965 -11.56,1.6811 -36.675,1.89 -48.372,0.4022 z" />
    <path
       id="path3176"
       style="fill:#808080;fill-opacity:1"
       d="m 2082.6,3642.7 c 0.869,-1.0472 -5.0217,-15.376 -26.002,-63.25 -14.919,-34.043 -31.012,-71.571 -35.76,-83.396 -6.9687,-17.353 -8.9982,-21.5 -10.521,-21.5 -1.5117,0 -3.0709,3.0813 -7.8434,15.5 -3.2761,8.525 -19.185,45.773 -35.354,82.772 -16.169,37 -29.397,67.862 -29.397,68.583 0,0.7209 0.3,1.6108 0.6667,1.9774 0.3666,0.3667 32.712,0.6667 71.878,0.6667 58.664,0 71.409,-0.2386 72.335,-1.3539 z m -220.9,112.7 c 0,-0.4316 30.999,-70.532 68.887,-155.78 l 68.887,-155 10.863,-0.2679 10.863,-0.2679 68.914,155.27 c 37.902,85.397 69.092,155.61 69.309,156.02 0.2175,0.4125 -5.4153,0.75 -12.518,0.75 h -12.913 l -19.746,-45.431 c -10.86,-24.987 -20.413,-45.687 -21.228,-46 -0.8151,-0.3128 -38.29,-0.5687 -83.278,-0.5687 -68.198,0 -81.986,0.2287 -82.937,1.3755 -0.6279,0.7566 -9.8374,21.344 -20.466,45.75 l -19.324,44.374 -12.657,0.2799 c -6.9612,0.1539 -12.657,-0.073 -12.657,-0.505 z" />
    <path
       id="path3172"
       style="fill:#808080;fill-opacity:1"
       d="m 3051.2,3613.6 c 32.996,-5.3706 55.105,-22.682 64.317,-50.36 2.2469,-6.7513 2.5594,-9.3981 2.6173,-22.167 0.075,-16.448 -1.1312,-22.4 -6.9584,-34.35 -6.66,-13.658 -15.296,-21.944 -30.976,-29.718 -18.916,-9.3786 -30.102,-10.925 -79.05,-10.929 -26.709,0 -36.361,0.3081 -37.25,1.1972 -0.9111,0.9111 -1.2,18.556 -1.2,73.3 0,54.744 0.2889,72.389 1.2,73.3 1.8851,1.8851 75.455,1.655 87.3,-0.273 z m -111.5,-13.6 0,-156.09 54.75,0.4788 c 45.196,0.3953 56.233,0.7654 63.25,2.1206 27.293,5.2715 43.174,12.743 58.347,27.45 9.1127,8.8324 15.932,18.645 19.641,28.263 5.2447,13.6 6.389,20.62 6.3366,38.874 -0.041,14.384 -0.3726,17.728 -2.5828,26.07 -4.5946,17.342 -14.074,32.264 -27.404,43.137 -8.906,7.2643 -15.139,10.86 -26.801,15.46 -7.2695,2.8673 -9.5369,4.2026 -9.5369,5.6165 0,1.0202 16.699,28.914 37.109,61.987 20.41,33.073 37.338,60.73 37.618,61.461 0.4112,1.0716 -2.0268,1.2744 -12.605,1.0486 l -13.115,-0.2798 -37.253,-60.404 -37.253,-60.404 -42.468,0.2116 c -28.251,0.1409 -42.897,0.568 -43.75,1.2761 -1.017,0.844 -1.2825,13.357 -1.2825,60.442 v 59.378 h -11.5 -11.5 v -156.09 z" />
    <path
       style="fill:#808080"
       inkscape:connector-curvature="0"
       d="m 3304.7,3600.1 0,-156 100.5,0 100.5,0 0,11 0,11 -88.3,0 c -67.344,0 -88.585,0.2848 -89.5,1.2 -0.9035,0.9035 -1.2,14.444 -1.2,54.8 0,40.356 0.2965,53.896 1.2,54.8 0.9109,0.9109 18.378,1.2 72.5,1.2 h 71.3 v 10.5 10.5 h -71.3 c -54.122,0 -71.589,0.2891 -72.5,1.2 -0.9089,0.9089 -1.2,17.111 -1.2,66.8 0,49.689 0.2911,65.891 1.2,66.8 0.9155,0.9155 22.489,1.2 91,1.2 h 89.8 v 10.5 10.5 h -102 -102 v -156 z"
       id="path3170" />
    <path
       id="path3166"
       style="fill:#808080;fill-opacity:1"
       d="m 3854.6,3642.7 c 0.8961,-1.0797 -5.3299,-16.187 -28.745,-69.75 -16.439,-37.604 -32.516,-75.253 -35.726,-83.664 -4.9148,-12.874 -6.1392,-15.246 -7.7436,-15 -1.4689,0.2256 -3.4571,4.3035 -8.6751,17.793 -3.7232,9.625 -19.648,46.893 -35.389,82.818 -15.741,35.925 -28.62,65.887 -28.62,66.583 0,0.6962 0.3,1.5658 0.6667,1.9324 0.3666,0.3667 32.712,0.6667 71.878,0.6667 59.284,0 71.402,-0.2309 72.355,-1.3783 z m -220.5,111.7 c 0.3133,-0.9793 31.373,-71.08 69.021,-155.78 l 68.451,-154 10.824,-0.2806 10.824,-0.2806 68.982,155.15 c 37.94,85.333 69.132,155.55 69.316,156.03 0.1834,0.4837 -5.4661,0.8794 -12.554,0.8794 h -12.888 l -19.446,-44.678 c -10.695,-24.573 -20.04,-45.273 -20.767,-46 -1.0741,-1.0745 -16.758,-1.3219 -83.796,-1.3219 h -82.475 l -1.5526,2.75 c -0.854,1.5125 -9.9709,22.1 -20.26,45.75 l -18.707,43 -12.771,0.2805 c -11.861,0.2604 -12.73,0.1536 -12.201,-1.5 z" />
    <path
       style="fill:#808080"
       inkscape:connector-curvature="0"
       d="m 4106.7,3612.3 c 0,-110.51 -0.2778,-144.08 -1.2,-145 -0.9027,-0.9027 -14.156,-1.2 -53.5,-1.2 h -52.3 v -11 -11 h 119 119 v 11 11 h -52.8 c -39.733,0 -53.097,0.297 -54,1.2 -0.9222,0.9222 -1.2,34.489 -1.2,145 v 143.8 h -11.5 -11.5 v -143.8 z"
       id="path3164" />
    <path
       id="path3160"
       style="fill:#808080;fill-opacity:1"
       d="m 5181.6,3642.7 c 0.9214,-1.1103 -5.041,-15.592 -28.717,-69.75 -16.434,-37.592 -32.502,-75.233 -35.708,-83.646 -7.5976,-19.945 -7.6477,-19.942 -15.617,0.7977 -3.2759,8.525 -19.27,45.966 -35.542,83.201 -16.933,38.748 -29.331,68.364 -28.991,69.25 0.529,1.3785 8.4491,1.5489 72.003,1.5489 60.016,0 71.594,-0.2235 72.572,-1.4012 z m -220.5,111.7 c 0.3133,-0.9793 31.373,-71.08 69.021,-155.78 l 68.451,-154 10.824,-0.2806 10.824,-0.2806 68.982,155.15 c 37.94,85.333 69.132,155.55 69.316,156.03 0.1834,0.4837 -5.4608,0.8794 -12.542,0.8794 H 5233.1 l -19.4,-44.622 c -10.67,-24.542 -20.021,-45.242 -20.779,-46 -1.1489,-1.1488 -15.111,-1.3783 -83.853,-1.3783 h -82.475 l -1.5405,2.75 c -0.8472,1.5125 -9.9589,22.1 -20.248,45.75 l -18.708,43 -12.782,0.2805 c -11.872,0.2604 -12.742,0.1536 -12.213,-1.5 z" />
    <path
       id="path3156"
       style="fill:#808080;fill-opacity:1"
       d="m 5518.2,3611.8 c 37.608,-10.171 57.952,-35.424 57.755,-71.695 -0.076,-14.032 -2.3509,-23.526 -8.4549,-35.287 -7.5151,-14.479 -19.633,-24.559 -37.624,-31.296 -17.046,-6.3834 -19.531,-6.6544 -65.471,-7.143 -31.736,-0.3376 -42.145,-0.1539 -43.25,0.763 -1.2487,1.0364 -1.455,11.439 -1.455,73.385 0,56.403 0.2732,72.453 1.25,73.438 0.9781,0.9861 10.603,1.1818 44.25,0.8995 l 43,-0.3607 10,-2.7045 z m -120.5,-11.8 0,-156.08 53.75,0.424 c 57.873,0.4565 61.567,0.7423 80.78,6.2491 17.118,4.9065 30.982,12.866 42.539,24.423 17.009,17.009 23.705,33.762 24.608,61.568 0.5781,17.805 -1.0685,29.241 -5.9508,41.328 -8.292,20.529 -27.554,39.084 -48.874,47.08 -10.55,3.9568 -11.366,4.4429 -11.286,6.7225 0.036,1.028 16.856,29.094 37.377,62.369 20.521,33.275 37.506,60.838 37.744,61.25 0.2375,0.4125 -5.5571,0.7296 -12.877,0.7047 l -13.309,-0.045 -36.5,-59.48 c -20.075,-32.714 -36.785,-59.972 -37.133,-60.574 -0.8722,-1.5084 -85.752,-1.196 -87.581,0.3224 -1.0212,0.8475 -1.2857,13.283 -1.2857,60.444 v 59.378 h -11 -11 v -156.08 z" />
    <path
       style="fill:#808080"
       inkscape:connector-curvature="0"
       d="m 5761.7,3600.1 0,-156 11.5,0 11.5,0 0,156 0,156 -11.5,0 -11.5,0 0,-156 z"
       id="path3154" />
    <path
       style="fill:#808080"
       inkscape:connector-curvature="0"
       d="m 5959.7,3600.1 0,-156 10.885,0 10.885,0 87.452,117.75 c 48.099,64.762 93.006,125.31 99.794,134.55 9.5164,12.951 12.79,16.728 14.298,16.5 1.932,-0.2924 1.9541,-1.9806 1.76,-134.55 l -0.1966,-134.25 8.8112,0.014 c 4.8461,0.01 9.8236,0.2849 11.061,0.6166 l 2.25,0.603 v 155.38 155.38 h -10.903 -10.903 l -82.82,-111.75 c -70.354,-94.93 -113.15,-153.47 -116.31,-159.1 -0.4175,-0.744 -1.5388,-1.194 -2.4917,-1 -1.6339,0.3326 -1.726,8.0843 -1.616,136.1 l 0.1166,135.75 h -11.037 -11.037 v -156 z"
       id="path3152" />
    <path
       style="fill:#808080"
       inkscape:connector-curvature="0"
       d="m 7017.7,3600.1 0,-156 10.845,0 10.845,0 88.571,119.25 c 48.714,65.588 93.702,126.22 99.973,134.75 7.4017,10.062 12.035,15.5 13.207,15.5 1.7315,0 1.7973,-5.4618 1.6232,-134.75 l -0.1815,-134.75 8.8081,0.014 c 4.8445,0.01 9.8206,0.2849 11.058,0.6166 l 2.25,0.603 v 155.38 155.38 h -10.933 -10.933 l -77.27,-104.25 c -75.72,-102.16 -97,-131.13 -114.03,-155.25 -5.4025,-7.6508 -9.1175,-12 -10.25,-12 -1.6941,0 -1.77,6.3024 -1.6343,135.75 l 0.1423,135.75 h -11.046 -11.046 v -156 z"
       id="path3150" />
    <path
       style="fill:#808080"
       inkscape:connector-curvature="0"
       d="m 7439.7,3600.1 0,-156 101,0 101,0 0,11 0,11 -88.3,0 c -67.344,0 -88.585,0.2848 -89.5,1.2 -0.9035,0.9035 -1.2,14.444 -1.2,54.8 0,40.356 0.2965,53.896 1.2,54.8 0.9107,0.9107 18.267,1.2 72,1.2 h 70.8 v 10.5 10.5 h -70.8 c -53.733,0 -71.089,0.2893 -72,1.2 -0.9089,0.9089 -1.2,17.111 -1.2,66.8 0,49.689 0.2911,65.891 1.2,66.8 0.9155,0.9155 22.489,1.2 91,1.2 h 89.8 v 10.5 10.5 h -102.5 -102.5 v -156 z"
       id="path3148" />
    <path
       style="fill:#808080"
       inkscape:connector-curvature="0"
       d="m 7876.7,3612.3 c 0,-110.51 -0.2778,-144.08 -1.2,-145 -0.9027,-0.9027 -14.156,-1.2 -53.5,-1.2 h -52.3 v -11 -11 h 119 119 v 11 11 h -52.8 c -39.733,0 -53.097,0.297 -54,1.2 -0.9222,0.9222 -1.2,34.489 -1.2,145 v 143.8 h -11.5 -11.5 v -143.8 z"
       id="path3146" />
    <path
       style="fill:#808080"
       inkscape:connector-curvature="0"
       d="m 8237.2,3754.3 c -1.3435,-3.4083 -107.52,-309.32 -107.52,-309.78 0,-0.2582 5.3062,-0.4695 11.792,-0.4695 h 11.792 l 40.727,117.25 c 22.4,64.488 42.766,124.22 45.258,132.75 6.2503,21.379 6.6922,22.5 8.8709,22.5 1.5339,0 2.4276,-2.1765 5.1533,-12.55 4.2866,-16.314 6.7729,-24.232 39.953,-127.23 l 27.955,-86.781 9.9295,0.2813 9.9295,0.2814 12.711,39.5 c 6.9911,21.725 20.901,64.925 30.91,96 10.01,31.075 20.315,64.15 22.901,73.5 3.9509,14.286 5.0009,17 6.577,17 2.0448,0 1.6954,0.8895 8.6418,-22 4.195,-13.823 85.318,-249.25 86.185,-250.12 0.2462,-0.2462 5.6419,-0.3204 11.99,-0.1648 l 11.543,0.2829 -54.076,155.75 -54.076,155.75 -10.083,-0.01 -10.083,-0.01 -18.936,-60.24 c -10.415,-33.132 -24.515,-78.015 -31.333,-99.74 -6.8182,-21.725 -14.317,-46.925 -16.663,-56 -5.7989,-22.428 -6.1555,-22.36 -13.095,2.5 -5.7856,20.725 -10.033,34.558 -43.531,141.75 l -22.422,71.75 h -10.153 c -8.7402,0 -10.249,-0.2435 -10.843,-1.75 z"
       id="path3144" />
    <path
       id="path3140"
       style="fill:#808080;fill-opacity:1"
       d="m 9226.5,3612.3 c 25.4,-6.6267 42.198,-19.1 51.731,-38.414 5.5412,-11.226 7.4917,-19.941 7.5146,-33.574 0.029,-17.097 -4.1255,-30.637 -13.378,-43.603 -9.298,-13.03 -25.534,-22.546 -47.41,-27.789 -7.899,-1.8931 -12.516,-2.1244 -50.489,-2.5294 -31.737,-0.3385 -42.145,-0.1551 -43.25,0.7618 -1.2487,1.0364 -1.455,11.439 -1.455,73.385 0,56.4 0.2732,72.454 1.25,73.443 0.9821,0.9943 10.467,1.1802 44.25,0.8672 40.033,-0.371 43.568,-0.5467 51.237,-2.5473 z m -119.8,-12.3 0,-156.08 54.25,0.4226 c 58.419,0.4552 62.026,0.7324 81.28,6.2478 26.184,7.5006 48.346,25.31 58.613,47.1 5.4995,11.673 7.8935,22.437 8.5391,38.394 0.6524,16.125 -1.0496,27.768 -5.9711,40.846 -8.7495,23.251 -29.121,41.822 -55.48,50.577 -3.7562,1.2476 -5.2301,2.2503 -5.2301,3.5582 0,1.0016 13.566,23.803 30.147,50.67 16.581,26.867 33.678,54.586 37.994,61.599 l 7.8474,12.75 h -13.263 -13.263 l -36.383,-59.25 c -20.011,-32.588 -36.948,-59.868 -37.639,-60.623 -1.0319,-1.1277 -8.8067,-1.3404 -43.565,-1.192 -28.184,0.1204 -42.737,0.5361 -43.592,1.2451 -1.017,0.844 -1.2825,13.357 -1.2825,60.442 v 59.378 h -11.5 -11.5 v -156.08 z" />
    <path
       style="fill:#808080"
       inkscape:connector-curvature="0"
       d="m 9471.7,3600.1 0,-156 11.658,0 11.658,0 -0.4082,84.735 c -0.3882,80.599 -0.3213,84.752 1.3701,85.079 1.2465,0.2412 27.066,-25.094 86.355,-84.735 l 84.576,-85.079 h 14.642 14.642 l -62.247,62.253 c -36.876,36.88 -62.247,62.997 -62.247,64.079 0,1.0044 30.583,43.078 67.963,93.497 l 67.963,91.671 -13.155,0.2804 c -11.536,0.2458 -13.365,0.061 -14.861,-1.5 -0.9387,-0.9792 -29.028,-38.455 -62.421,-83.28 -33.393,-44.825 -61.332,-81.856 -62.088,-82.292 -0.7557,-0.4357 -2.1675,-0.3545 -3.1372,0.1806 -0.9698,0.5351 -14.251,13.51 -29.513,28.834 l -27.75,27.86 v 55.209 55.209 h -11.5 -11.5 v -156 z"
       id="path3138" />
    <path
       style="fill:#808080"
       inkscape:connector-curvature="0"
       d="m 1619.2,3257.5 c -26.435,-1.9627 -35.335,-2.8441 -50.288,-4.9803 -41.142,-5.8776 -80.306,-16.148 -118.71,-31.131 -19.383,-7.5617 -60.986,-28.383 -79,-39.539 -79.054,-48.953 -140.5,-115.74 -181.94,-197.77 -28.45,-56.307 -44.45,-110.34 -52.711,-178.01 -2.0084,-16.453 -2.2624,-23.181 -2.3023,-60.993 -0.047,-44.738 0.4529,-53.08 5.0669,-84.5 33.85,-230.52 212.27,-402.34 445.39,-428.92 133.29,-15.198 265.64,19.621 369.76,97.28 38.269,28.543 76.191,66.411 103.74,103.59 15.82,21.354 38.032,56.455 37.235,58.845 -0.2022,0.6066 -54.514,15.37 -120.69,32.806 l -120.32,31.704 -13.108,-13.268 c -14.867,-15.048 -22.289,-21.126 -39.81,-32.607 -44.102,-28.896 -102.03,-45.936 -156.15,-45.933 -72.071,0 -135.76,23.898 -182.41,68.435 -45.513,43.454 -72.88,103.79 -80.308,177.06 -1.522,15.012 -1.5352,53.409 -0.023,68 2.7344,26.39 9.2313,55.892 17.067,77.5 5.6213,15.502 17.336,39.086 26.078,52.5 24.311,37.305 55.383,64.84 95.448,84.584 58.179,28.67 130.08,35.634 195.5,18.933 63.754,-16.277 119.78,-53.431 150.53,-99.828 3.9517,-5.9623 5.2265,-7.2143 6.9084,-6.7854 76.722,19.568 236.99,61.62 237.75,62.383 0.7446,0.7446 -0.8977,4.939 -5.5382,14.145 -50.386,99.954 -134.21,181.01 -235.98,228.2 -53.86,24.971 -110.39,40.241 -171.72,46.384 -14.434,1.4458 -68.25,2.7363 -79.445,1.9052 z"
       id="path3136" />
    <path
       style="fill:#ffffff"
       inkscape:connector-curvature="0"
       d="m 2840.7,2872.3 c 0,-1.0126 -16.454,-46.575 -36.565,-101.25 -39.739,-108.04 -47.178,-129.27 -63.031,-179.91 -14.808,-47.301 -16.464,-52.147 -17.687,-51.739 -0.5965,0.1989 -6.4167,17.434 -12.934,38.3 -18.696,59.861 -28.227,87.237 -67.675,194.39 -20.339,55.247 -36.758,100.81 -36.486,101.25 0.2723,0.4406 53.119,0.8011 117.44,0.8011 112.91,0 116.94,-0.064 116.94,-1.8411 z"
       id="path3132" />
    <path
       style="fill:#808080"
       inkscape:connector-curvature="0"
       d="m 3567.2,3236.8 c -0.261,-0.6897 -0.5851,-173.15 -0.7202,-383.25 l -0.2455,-382 -148,-0.5 -148,-0.5 v -111 -111 h 417 417 v 111 111 l -150,0.5 -150,0.5 -0.5,383 -0.5,383 -117.78,0.2541 c -93.698,0.2022 -117.88,0 -118.25,-1 z"
       id="path3130" />
    <path
       style="fill:#808080"
       inkscape:connector-curvature="0"
       d="m 4352.2,3236.8 c -0.2617,-0.6898 -0.3608,-223.33 -0.2202,-494.75 l 0.2557,-493.5 h 118.5 118.5 l 0.5,191 0.5,191 h 184.5 184.5 l 0.5,-191 0.5,-191 h 118.5 118.5 v 494.5 494.5 h -118.5 -118.5 l -0.5,-191.5 -0.5,-191.5 h -184.5 -184.5 l -0.5,191.5 -0.5,191.5 -118.28,0.2541 c -94.097,0.2022 -118.38,0 -118.76,-1 z"
       id="path3128" />
    <path
       style="fill:#808080"
       inkscape:connector-curvature="0"
       d="m 5540.2,3236.8 c -0.2612,-0.6883 -0.3598,-223.33 -0.2192,-494.75 l 0.2557,-493.5 h 359.5 359.5 v 111 111 l -240.5,0.5 -240.5,0.5 v 80 80 l 188.5,0.5 188.5,0.5 v 104 104 l -188.5,0.5 -188.5,0.5 v 86.5 86.5 l 245,0.5 245,0.5 v 111 111 l -363.78,0.2514 c -290.5,0.2007 -363.88,-8e-4 -364.26,-1 z"
       id="path3126" />
    <path
       style="fill:#808080"
       inkscape:connector-curvature="0"
       d="m 6600.2,3236.9 c -0.2667,-0.7028 -0.3699,-223.35 -0.2293,-494.78 l 0.2557,-493.5 219.5,-0.2968 c 221.71,-0.2997 246.23,0 276,3.3475 65.487,7.3691 125.16,24.632 180.5,52.22 50.124,24.986 89.587,53.249 128.03,91.696 37.721,37.721 64.634,75.066 88.439,122.72 26.67,53.388 42.855,109.98 49.564,173.31 2.1968,20.738 3.0289,70.7 1.5322,92 -3.3116,47.128 -10.997,87.133 -24.59,128 -33.335,100.22 -97.785,183.54 -186.98,241.72 -61.438,40.075 -135.13,67.427 -212,78.685 -39.469,5.7807 -24.344,5.4687 -282.27,5.8228 -191.89,0.2634 -237.36,0.081 -237.76,-0.9521 z"
       id="path3124" />
    <path
       style="fill:#ffffff"
       inkscape:connector-curvature="0"
       d="m 7073.7,3012.7 c 33.572,-5.6156 57.873,-13.224 84,-26.298 26.53,-13.276 46.763,-28.105 67.509,-49.479 37.288,-38.416 59.545,-85.003 68.534,-143.45 3.0399,-19.767 3.7757,-58.092 1.5231,-79.344 -8.9438,-84.384 -48.849,-153.65 -114.07,-197.98 -32.139,-21.85 -68.038,-35.668 -110,-42.342 -13.85,-2.2028 -15.175,-2.2268 -123.5,-2.2399 l -109.5,-0.013 -0.2561,270.5 c -0.1409,148.78 -0.035,271.08 0.2341,271.79 0.3974,1.0462 21.745,1.2265 112.76,0.9526 101.42,-0.3053 113.28,-0.5075 122.77,-2.0942 z"
       id="path3122" />
    <path
       style="fill:#808080"
       inkscape:connector-curvature="0"
       d="m 7816.2,3236.8 c -0.2617,-0.6898 -0.3608,-223.33 -0.2202,-494.75 l 0.2557,-493.5 187.5,-0.2999 c 195.28,-0.3123 216.88,0.021 250.66,3.8735 100.46,11.457 181.25,46.768 238.86,104.4 42.646,42.667 70.629,95.698 82.854,157.02 11.461,57.489 8.8067,124.14 -7.0261,176.46 -6.7369,22.261 -18.226,48.338 -29.316,66.539 -28.212,46.303 -71.733,85.77 -122.87,111.42 -7.7983,3.912 -10.192,5.5633 -9.7463,6.7241 0.3248,0.8463 49.189,82.534 108.59,181.53 59.398,98.994 108,180.4 108,180.91 0,0.5539 -52.804,0.9189 -132.94,0.9189 h -132.94 l -91.813,-160.75 -91.812,-160.75 h -60 -60 l -0.5,160.5 -0.5,160.5 -118.28,0.2541 c -94.097,0.2022 -118.38,0 -118.76,-1 z"
       id="path3120" />
    <path
       style="fill:#ffffff"
       inkscape:connector-curvature="0"
       d="m 8237.2,2703 c 47.619,-6.6231 81.895,-37.126 93.995,-83.647 3.0392,-11.685 4.8072,-28.605 4.0004,-38.285 -4.5154,-54.176 -35.378,-93.437 -82.931,-105.5 -17.065,-4.329 -24.196,-4.5983 -113.6,-4.2906 l -84.5,0.2909 -0.2574,115 c -0.1416,63.25 -0.043,115.56 0.2186,116.25 0.6293,1.6524 171.28,1.8221 183.07,0.1821 z"
       id="path3118" />
    <path
       style="fill:#808080"
       inkscape:connector-curvature="0"
       d="m 10010,3236.8 c -0.261,-0.6883 -0.36,-223.33 -0.219,-494.75 l 0.256,-493.5 h 118.5 118.5 l 0.5,383 0.5,383 233.5,0.5 233.5,0.5 v 111 111 l -352.28,0.2514 c -281.3,0.2008 -352.38,-7e-4 -352.76,-1 z"
       id="path3112" />
    <path
       style="fill:#808080"
       inkscape:connector-curvature="0"
       d="m 3593.2,2134 c -69.187,-4.1394 -134.08,-23.816 -184.97,-56.09 -69.979,-44.374 -118.52,-111.93 -138.06,-192.14 -3.156,-12.954 -7.8427,-37.693 -7.2251,-38.139 0.1429,-0.1031 16.235,-4.5505 35.76,-9.883 19.525,-5.3326 36.214,-9.9099 37.088,-10.172 1.3221,-0.3963 1.7877,1.1584 2.7826,9.2899 5.4197,44.299 27.325,94.629 56.015,128.7 44.494,52.838 109.78,85.54 190.12,95.23 20.189,2.4353 67.528,2.4301 88.315,-0.01 78.543,-9.2184 141.27,-38.606 179.42,-84.054 24.009,-28.605 38.73,-62.554 43.324,-99.91 1.7558,-14.278 0.7415,-43.275 -1.9934,-56.987 -10.354,-51.914 -41.613,-92.111 -95.563,-122.89 -40.861,-23.309 -81.743,-38.284 -178,-65.199 -113.59,-31.763 -153.8,-45.139 -194.13,-64.582 -51.745,-24.945 -90.398,-56.665 -113.7,-93.307 -35.194,-55.336 -37.878,-138.38 -6.6027,-204.23 10.958,-23.07 25.734,-43.405 46.887,-64.527 20.767,-20.737 40.006,-35.174 65.932,-49.477 32.256,-17.794 75.67,-32.341 117.62,-39.41 99.744,-16.81 197.52,-2.812 272.15,38.959 69.202,38.736 119.57,98.698 143.61,170.96 5.0822,15.276 11.275,40.176 10.489,42.174 -0.495,1.2589 -74.308,21.603 -75.186,20.722 -0.2177,-0.2183 -1.6017,-5.7969 -3.0756,-12.397 -14.4,-64.479 -50.34,-117.12 -103.73,-151.92 -28.631,-18.662 -66.787,-33.5 -102.76,-39.96 -20.08,-3.606 -29.539,-4.5771 -51.5,-5.2874 -48.627,-1.5729 -99.496,6.5821 -139.46,22.357 -68.471,27.029 -109.39,73.102 -120.61,135.81 -2.4582,13.731 -2.4688,41.762 -0.02,53 14.805,67.947 71.793,109.99 203.09,149.83 9.9,3.0039 39.375,11.396 65.5,18.65 99.545,27.639 139.8,41.496 184.5,63.513 39.098,19.257 65.912,37.836 91.584,63.457 32.373,32.308 50.116,62.73 60.399,103.56 5.5163,21.902 7.0166,35.587 7.0164,63.995 -2e-4,33.635 -3.1011,54.186 -12.46,82.577 -21.05,63.856 -69.342,118.22 -136.21,153.34 -64.306,33.77 -148.92,49.687 -236.33,44.458 z"
       id="path3068" />
    <path
       style="fill:#808080"
       inkscape:connector-curvature="0"
       d="m 7028.4,2134 c -150.65,-7.79 -285.43,-77.124 -376.38,-193.63 -71.005,-90.952 -107.82,-206.92 -105.01,-330.81 1.8259,-80.546 19.191,-154.31 52.056,-221.13 25.49,-51.823 55.837,-93.691 97.779,-134.9 31.198,-30.655 57.271,-50.832 95.021,-73.532 82.693,-49.726 193.54,-76.444 290,-69.898 123.2,8.362 223.84,46.618 309.83,117.78 14.845,12.285 48.974,46.424 61.163,61.181 17.68,21.406 35.434,46.456 47.627,67.198 4.3453,7.3923 4.8574,8.7745 3.4116,9.2073 -6.9851,2.0907 -75.37,19.584 -76.397,19.542 -0.7173,-0.029 -6.1004,-7.3411 -11.962,-16.25 -42.562,-64.684 -102.95,-114.45 -178.99,-147.51 -78.648,-34.192 -172.03,-44.623 -261.35,-29.195 -60.17,10.392 -120.28,34.726 -170.2,68.896 -78.035,53.424 -135.01,134.96 -161.29,230.81 -16.736,61.038 -21.251,128.87 -12.934,194.3 9.8096,77.177 40.618,152.65 86.227,211.25 38.454,49.402 84.682,86.928 142.13,115.38 48.641,24.09 96.201,37.637 154.56,44.028 21.833,2.3907 69.386,2.3784 92.5,-0.024 62.858,-6.5331 118.03,-22.806 173,-51.028 44.461,-22.825 78.077,-47.065 111.03,-80.057 22.876,-22.906 40.516,-46.127 52.897,-69.633 l 5.5761,-10.586 v -77.964 c 0,-59.305 -0.2872,-78.251 -1.2,-79.164 -0.923,-0.923 -37.044,-1.2 -156.5,-1.2 h -155.3 v -34 -34 h 191.5 191.5 v 249.5 249.5 h -35.158 -35.157 l 0.4074,-83.235 c 0.3692,-75.416 0.2585,-83.264 -1.1791,-83.542 -0.9994,-0.1934 -5.4249,4.243 -11.956,11.985 -5.7028,6.7606 -17.364,19.272 -25.913,27.803 -101,100.78 -233.79,150.55 -381.34,142.92 z"
       id="path3066" />
    <path
       style="fill:#808080"
       inkscape:connector-curvature="0"
       d="m 1401.2,2113.8 c -3.2671,-9.137 -340.91,-981.74 -341.25,-983.01 -0.4526,-1.6639 1.7567,-1.747 39.878,-1.5 l 40.357,0.2614 120.74,347 c 66.405,190.85 124.09,356.9 128.19,369 8.0966,23.902 21.72,68.531 34.647,113.5 4.5059,15.675 8.6048,29.288 9.1086,30.25 0.5037,0.9625 1.7875,1.75 2.8527,1.75 2.2545,0 1.9959,0.8198 11.418,-36.182 14.592,-57.308 7.8566,-35.782 124.09,-396.57 l 91.896,-285.25 h 33.099 33.099 l 92.38,286.75 c 50.809,157.71 94.584,293.72 97.279,302.25 7.53,23.824 20.9,71.014 27.198,96 8.4608,33.563 8.3307,33.171 10.875,32.808 2.4912,-0.3549 2.2912,0.2242 17.03,-49.308 16.367,-55.006 25.473,-81.803 153.43,-451.5 l 124.77,-360.5 40.218,-0.2613 c 22.12,-0.1438 40.213,0.081 40.206,0.5 -0.01,0.4187 -76.907,222.16 -170.89,492.76 l -170.88,492 -33.022,0.2634 -33.022,0.2633 -3.0452,-9.2633 c -5.6983,-17.334 -178.95,-568.16 -185.5,-589.76 -12.674,-41.809 -24.443,-84.802 -33.396,-122 -3.3251,-13.814 -3.9689,-15.534 -5.9201,-15.812 -2.5484,-0.3627 -1.6701,-3.0484 -14.654,44.812 -18.698,68.922 -21.619,78.48 -132.69,434.24 l -80.468,257.74 -33.781,0.01 c -26.124,0 -33.883,-0.2772 -34.228,-1.2439 z"
       id="path3064" />
    <path
       style="fill:#808080"
       inkscape:connector-curvature="0"
       d="m 2975.7457,1790.9998 c -57.6875,-130.2016 -245.6481,-555.8314 -245.8528,-555.8211 0,0 -191.4398,437.7511 -244.5157,558.3631 m -25.9099,57.1471 c -11.4594,25.6466 -31.1996,70.4563 -53.2823,121.0282 l -62.402,142.92 -43.167,0.2607 c -40.853,0.2467 -43.132,0.1663 -42.514,-1.5 l 0,0 c 0.3588,-0.9684 98.846,-222.82 218.86,-493 l 218.21,-491.24 35.5,-0.011 35.5,-0.011 218.75,492.27 c 120.31,270.75 218.75,492.6 218.75,493 0,0.4009 -19.29,0.7289 -42.866,0.7289 l -42.866,0 -2.997,-6.75 c -1.6483,-3.7125 -29.685,-67.95 -62.303,-142.75 -20.8271,-47.761 -39.4114,-90.2055 -50.2623,-114.8302"
       id="path3062"
       sodipodi:nodetypes="ccccccsccscccsssccsc" />
    <path
       style="fill:#808080"
       inkscape:connector-curvature="0"
       d="m 4179.7,1622.1 0,-493 38.5,0 38.5,0 0,215.3 c 0,166.12 0.2741,215.57 1.2,216.5 1.7481,1.7481 586.85,1.7481 588.6,0 0.9259,-0.9259 1.2,-50.378 1.2,-216.5 v -215.3 h 39.5 39.5 v 493 493 h -39.5 -39.5 v -237.8 c 0,-183.62 -0.2734,-238.07 -1.2,-239 -1.7481,-1.7481 -586.85,-1.7481 -588.6,0 -0.9266,0.9266 -1.2,55.378 -1.2,239 v 237.8 h -38.5 -38.5 v -493 z"
       id="path3058" />
    <path
       style="fill:#808080"
       inkscape:connector-curvature="0"
       d="m 5206.7,1622.1 0,-493 39,0 39,0 0,493 0,493 -39,0 -39,0 0,-493 z"
       id="path3056" />
    <path
       style="fill:#808080"
       inkscape:connector-curvature="0"
       d="m 5563.7,1622.1 0,-493.01 37.667,0.2621 37.667,0.262 252.84,340 c 139.06,187 270.72,364.22 292.58,393.83 21.861,29.606 50.1,67.851 62.753,84.988 13.191,17.865 23.795,31.31 24.856,31.514 1.0177,0.196 2.2786,-0.072 2.8021,-0.5955 0.6025,-0.6025 0.3739,-21.467 -0.6228,-56.844 -2.9753,-105.6 -3.5048,-178.59 -3.5231,-485.64 l -0.018,-307.75 h 39.5 39.5 v 493 493 h -36.918 -36.918 l -252.04,-339.4 c -288.2,-388.09 -287.32,-386.89 -364.28,-496.1 -12.918,-18.33 -15.908,-22 -17.923,-22 h -2.4189 l 0.2072,29.5 c 0.114,16.225 0.6759,57.175 1.2488,91 0.5983,35.333 1.042,205.2 1.0427,399.25 v 337.75 h -39 -39 v -493.01 z"
       id="path3054" />
    <path
       style="fill:#808080"
       inkscape:connector-curvature="0"
       d="m 7980.7,1660.8 c 0,-352.01 -0.2702,-454.57 -1.2,-455.5 -0.9238,-0.9238 -39.822,-1.2 -169,-1.2 h -167.8 v -37.5 -37.5 h 378 378 v 37.5 37.5 h -168.3 c -129.57,0 -168.58,0.2762 -169.5,1.2 -0.9298,0.9298 -1.2,103.49 -1.2,455.5 v 454.3 h -39.5 -39.5 v -454.3 z"
       id="path3052" />
    <path
       style="fill:#808080"
       inkscape:connector-curvature="0"
       d="m 9636.7,1622.1 0,-493 37.353,0 37.353,0 224.38,301.75 c 305.7,411.12 310.68,417.82 359.73,484.44 23.765,32.278 44.369,60.065 45.787,61.75 2.656,3.1567 5.821,4.016 6.667,1.8104 0.487,-1.2698 -0.301,-34.412 -2.397,-100.75 -0.772,-24.406 -1.293,-154.54 -1.574,-392.75 l -0.421,-356.25 h 39.563 39.562 v 493.01 493.01 l -37.234,-0.2621 -37.233,-0.2622 -250.28,-337 c -283.81,-382.14 -289.32,-389.65 -362.71,-493.8 -15.448,-21.924 -19.261,-26.743 -20.964,-26.5 -2.0664,0.2953 -2.0812,0.5572 -1.9342,34.298 0.081,18.7 0.6439,65.918 1.25,104.93 0.6543,42.115 1.1019,202.48 1.1019,394.75 v 323.82 h -39 -39 v -493 z"
       id="path3201" />
    <path
       style="fill:#000000"
       d="m 1619.2,3255.5 c -26.435,-1.9627 -35.335,-2.8441 -50.288,-4.9803 -41.675,-5.9537 -80.803,-16.271 -119.71,-31.566 -20.038,-7.8769 -57.482,-26.654 -76,-38.111 -123.31,-76.293 -205.17,-198.08 -229.96,-342.12 -5.9577,-34.614 -6.9481,-47.871 -6.9964,-93.642 -0.047,-44.738 0.4529,-53.08 5.0669,-84.5 16.123,-109.8 64.934,-207.49 141.91,-284.04 87.952,-87.459 202.69,-137.72 331.97,-145.43 122.22,-7.2824 242.09,27.845 337.26,98.832 38.364,28.614 77.135,67.331 104.73,104.59 17.676,23.862 37.557,55.678 35.289,56.473 -0.7075,0.2478 -54.386,14.451 -119.29,31.563 l -118,31.112 -12.5,-12.663 c -14.255,-14.441 -21.805,-20.605 -39.202,-32.007 -37.145,-24.345 -86.218,-41.329 -132.65,-45.91 -38.382,-3.7867 -86.001,1.9964 -121.64,14.773 -62.912,22.551 -108.43,62.895 -137.93,122.26 -22.01,44.29 -31.898,89.002 -31.832,143.95 0.039,32.53 2.7858,55.187 10.246,84.5 5.102,20.048 10.555,34.754 20.022,54 25.134,51.093 60.058,86.206 110.49,111.09 36.218,17.868 72.972,26.736 116.5,28.109 49.037,1.5463 95.204,-8.749 140.09,-31.24 39.384,-19.736 71.034,-46.476 91.429,-77.247 2.6576,-4.0097 5.3163,-7.1106 5.9084,-6.8909 0.592,0.2196 53.726,14.014 118.08,30.655 64.35,16.641 117.31,30.542 117.7,30.891 0.3832,0.3494 -2.0232,6.0224 -5.3475,12.607 -37.585,74.444 -96.332,140.82 -166.74,188.39 -69.965,47.271 -150.48,75.77 -239.17,84.653 -14.434,1.4458 -68.25,2.7363 -79.445,1.9052 z"
       id="path3291" />
    <path
       style="fill:#ffffff"
       d="m 2842.49,2873.088 c 0.1631,-1.4152 -15.595,-45.677 -36.315,-102 -40.66,-110.53 -46.854,-128.27 -65.475,-187.55 -7.0921,-22.577 -13.357,-42.265 -13.921,-43.75 -1.2795,-3.3651 -4.7162,-3.6184 -6.1057,-0.45 -0.5428,1.2375 -6.1788,18.9 -12.524,39.25 -18.742,60.102 -26.264,81.721 -66.393,190.82 -30.665,83.366 -37.953,104.1 -36.994,105.25 1.0279,1.2386 17.582,1.4028 119.32,1.184 l 118.12,-0.2541 0.2882,-2.5 z"
       id="path3287" />
    <path
       style="fill:#000000"
       d="m 3568.7,2853.788 c 0,-296.01 -0.2709,-382.57 -1.2,-383.5 -0.9225,-0.9225 -35.267,-1.2 -148.5,-1.2 h -147.3 v -109.5 -109.5 h 415.5 415.5 v 109.5 109.5 h -149.3 c -114.79,0 -149.58,0.2774 -150.5,1.2 -0.9291,0.9291 -1.2,87.489 -1.2,383.5 v 382.3 h -116.5 -116.5 v -382.3 z"
       id="path3285" />
    <path
       style="fill:#000000"
       d="m 4353.7,2743.088 0,-493 117,0 117,0 0,190.3 c 0,146.68 0.2751,190.58 1.2,191.5 1.7458,1.7458 369.85,1.7458 371.6,0 0.9249,-0.9249 1.2,-44.822 1.2,-191.5 v -190.3 h 117 117 v 493 493 h -117 -117 v -190.8 c 0,-147.07 -0.2751,-191.08 -1.2,-192 -1.7458,-1.7458 -369.85,-1.7458 -371.6,0 -0.9249,0.9249 -1.2,44.933 -1.2,192 v 190.8 h -117 -117 v -493 z"
       id="path3283" />
    <path
       style="fill:#000000"
       d="m 5541.7,2743.088 0,-493 358,0 358,0 0,109.5 0,109.5 -239.8,0 c -185.18,0 -240.07,0.2733 -241,1.2 -1.7379,1.7379 -1.7379,160.86 0,162.6 0.9248,0.9248 44.267,1.2 189,1.2 h 187.8 v 102.5 102.5 h -187.8 c -144.73,0 -188.08,0.2752 -189,1.2 -1.739,1.739 -1.739,173.86 0,175.6 0.9268,0.9268 56.822,1.2 245.5,1.2 h 244.3 v 109.5 109.5 h -362.5 -362.5 v -493 z"
       id="path3281" />
    <path
       style="fill:#000000"
       d="m 10011.7,2743.078 0,-493 117,0 117,0 0,382.3 c 0,296.01 0.271,382.57 1.2,383.5 0.926,0.9265 54.267,1.2 234,1.2 h 232.8 v 109.5 109.5 h -351 -351 v -493 z"
       id="path3195" />
    <path
       inkscape:connector-curvature="0"
       style="fill:#000000"
       d="m 2840.3125,2866.731 -117.5259,-343.2829 c 0,0 -120.254,343.6277 -119.8906,342.4413 m -74.0036,213.4861 c -0.7098,0.4503 -13.827,35.206 -29.149,77.235 l -27.858,76.416 -126.62,0.2538 -126.62,0.2539 1.3372,-3.2539 0.02,0 c 0.7355,-1.7896 89.482,-223.64 197.21,-493 l 195.88,-489.75 111.55,0.02 111.55,0.02 195.94,489.73 c 107.77,269.35 196.54,491.19 197.26,492.98 l 1.3219,3.2539 -126.67,-0.2539 -126.67,-0.2538 -27.875,-76.458 c -15.331,-42.052 -28.425,-76.808 -29.097,-77.235"
       id="path3289-5"
       sodipodi:nodetypes="ccccsccccccccccccccsc" />
    <path
       sodipodi:nodetypes="ccccsccccccccccccccsc"
       id="path3469"
       d="m 9440.3125,2866.731 -117.5259,-343.2829 c 0,0 -120.254,343.6277 -119.8906,342.4413 m -74.0036,213.4861 c -0.7098,0.4503 -13.827,35.206 -29.149,77.235 l -27.858,76.416 -126.62,0.2538 -126.62,0.2539 1.3372,-3.2539 0.02,0 c 0.7355,-1.7896 89.482,-223.64 197.21,-493 l 195.88,-489.75 111.55,0.02 111.55,0.02 195.94,489.73 c 107.77,269.35 196.54,491.19 197.26,492.98 l 1.3219,3.2539 -126.67,-0.2539 -126.67,-0.2538 -27.875,-76.458 c -15.331,-42.052 -28.425,-76.808 -29.097,-77.235"
       style="fill:#000000"
       inkscape:connector-curvature="0" />
  </g>
  <g
     inkscape:groupmode="layer"
     id="layer1"
     inkscape:label="Layer"
     style="display:inline">
    <path
       style="fill:#1c1c1c"
       inkscape:connector-curvature="0"
       d="m 7837.5455,1178.0423 c -78.71,-5.6803 -149.82,-24.683 -219,-58.522 -171.08,-83.684 -290.97,-246.50997 -319.91,-434.46997 -4.3459,-28.228 -5.6789,-45.112 -6.2765,-79.5 -0.6376,-36.687 0.6738,-59.447 5.2721,-91.5 19.878,-138.57 87.954,-264.03 193.41,-356.44 163.88,-143.620011 393.7,-183.710007 596.5,-104.050011 110.36,43.347 206.16,120.650011 272.04,219.500011 14.098,21.154 24.052,38.471 36.79,64 34.402,68.949 53.594,138.88 59.66,217.38 1.3667,17.689 1.3704,67.179 0.01,84.123 -11.68,145.08 -71.572,273.53002 -174.62,374.53987 -43.308,42.4471 -89.333,75.3961 -143.87,103.0001 -65.422,33.109 -130,52.065 -204.5,60.024 -22.076,2.3585 -74.795,3.4235 -95.5,1.9294 z m 49.311,-82.739 c 17.817,-36.018 29.951,-65.583 43.198,-105.24995 12.54,-37.552 26.081,-87.31 24.257,-89.134 -3.6758,-3.6758 -106.48,-5.6008 -143.77,-2.6919 l -17,1.3264 -0.3008,2.5881 c -0.1654,1.4234 1.7424,10.724 4.2397,20.669 15.639,62.275 35.937,119.09995 61.076,170.96995 9.9727,20.579 12.774,25.272 15.085,25.272 0.9137,0 5.8768,-8.9221 13.212,-23.75 z m 60.398,13.651 c 31.382,-20.919 57.011,-42.041 85.369,-70.355 22.449,-22.414 37.332,-39.42795 54.279,-62.04595 10.228,-13.651 30.143,-43.068 30.143,-44.526 0,-1.9128 -4.3503,-3.4319 -24.139,-8.4296 -33.911,-8.5644 -81.205,-17.601 -82.956,-15.85 -0.4981,0.4981 -3.5651,10.558 -6.8156,22.356 -17.574,63.784 -40.58,124.44995 -65.184,171.88995 -6.5704,12.669 -7.7927,16.995 -4.4381,15.708 0.798,-0.3062 6.9817,-4.2436 13.742,-8.7498 z m -132.78,7.2156 c 0.3003,-0.4859 -4.3583,-10.948 -10.352,-23.25 -17.509,-35.932 -31.79,-71.471 -44.55,-110.86995 -6.0708,-18.742 -15.031,-49.809 -18.604,-64.5 -1.2037,-4.95 -2.7315,-9.5869 -3.395,-10.304 -0.9886,-1.0687 -4.0798,-0.8294 -17.116,1.3251 -29.343,4.8491 -82.096,16.635 -87.57,19.564 -1.0123,0.5417 -1.8405,1.8088 -1.8405,2.8158 0,2.2171 19.169,31.24 31.207,47.25 38.503,51.20595 83.744,94.30895 137.21,130.72995 11.666,7.9462 13.903,9.0247 15.009,7.2354 z m 253.92,-31.722 c 57.999,-23.204 108.61,-54.446 155.37,-95.91995 11.844,-10.503 13.542,-12.427 12.484,-14.139 -1.6708,-2.7034 -61.869,-26.818 -64.377,-25.789 -0.7317,0.3004 -5.0712,6.1457 -9.6433,12.99 -28.783,43.08495 -68.91,88.66595 -106.44,120.89995 -3.1625,2.7169 -5.75,5.5289 -5.75,6.249 0,2.3592 4.1363,1.3909 18.35,-4.2958 z m -372.35,3.2857 c 0,-0.7257 -5.6814,-6.4632 -12.625,-12.75 -34.376,-31.123 -67.271,-69.306 -95.875,-111.28995 -9.1222,-13.388 -11.458,-16.197 -13.68,-16.454 -4.6652,-0.5391 -62.133,22.576 -63.229,25.432 -0.381,0.9931 1.8866,3.8284 6.6656,8.3342 26.393,24.88395 63.322,52.15595 96.243,71.07395 23.202,13.333 74.28,36.841 80.25,36.934 1.2375,0.019 2.25,-0.5588 2.25,-1.2845 z m 588.76,-163.42995 c 7.1525,-8.615 20.847,-27.54 29.488,-40.75002 46.877,-71.664 74.775,-151.55 83.238,-238.35 1.2194,-12.508 1.3197,-16.682 0.4267,-17.758 -0.9846,-1.1864 -10.896,-1.3663 -63.289,-1.1491 l -62.121,0.2575 -0.708,7.5 c -0.3894,4.125 -1.4284,15.307 -2.3089,24.849 -7.0816,76.742 -27.678,151.34 -61.575,223.03 -5.351,11.31602 -6.0446,13.40502 -4.8285,14.54402 0.781,0.7315 9.5201,4.5652 19.42,8.5194 9.9,3.9542 26.1,10.936 36,15.514 9.9,4.5787 18.971,8.3751 20.157,8.4364 1.4307,0.074 3.4846,-1.4877 6.1004,-4.6384 z m -797.32,-5.703 c 13.563,-6.1415 47.103,-19.892 55.816,-22.883 0.9625,-0.3305 1.75,-1.4223 1.75,-2.4264 0,-1.0041 -3.3067,-9.00572 -7.3482,-17.78102 -31.069,-67.463 -50.773,-139.87 -57.584,-211.6 -1.1151,-11.744 -2.374,-25.402 -2.7977,-30.352 l -0.7704,-9 -62.321,-0.8786 c -40.55,-0.5717 -62.664,-0.5364 -63.301,0.101 -0.6396,0.6396 -0.6065,5.4576 0.095,13.879 8.4415,101.3 43.351,193.42 103.89,274.15002 9.4466,12.596 11.924,15.318 13.594,14.934 1.1235,-0.2582 9.6632,-3.9201 18.977,-8.1375 z m 662,-46.40802 c 1.3547,-2.6734 5.2364,-11.336 8.6259,-19.25 26.563,-62.022 43.173,-128.64 49.462,-198.39 0.8927,-9.9 1.479,-20.25 1.3029,-23 l -0.3202,-5 -80,-0.6909 c -61.329,-0.5297 -80.278,-0.413 -81.19,0.5 -0.7844,0.7852 -1.5588,9.1973 -2.2728,24.691 -2.8959,62.836 -9.7363,125.59 -19.444,178.38 -1.957,10.642 -2.9998,18.771 -2.526,19.691 0.5412,1.0512 3.5448,1.9812 9.1196,2.8239 23.105,3.4924 87.865,18.1 106.31,23.98 6.5705,2.0944 8.271,1.5137 10.929,-3.7325 z m -528.93,-1.0066 c 30.472,-8.0468 65.797,-15.61 92.363,-19.775 7.3612,-1.1541 11.548,-2.2637 11.888,-3.151 0.2891,-0.7533 -1.3359,-12.47 -3.6111,-26.038 -9.0887,-54.2 -14.793,-110.14 -17.149,-168.17 -0.6142,-15.125 -1.3002,-28.065 -1.5246,-28.756 -0.3239,-0.997 -17.063,-1.2032 -81.187,-1 l -80.779,0.2559 -0.3483,4.5 c -0.7549,9.7523 3.5935,52.688 7.9503,78.5 8.9163,52.826 24.128,104.22 44.638,150.81 6.8714,15.609 8.45,18.062 11.115,17.273 0.9045,-0.2679 8.3946,-2.2695 16.645,-4.4482 z m 349.2,-40.633 c 5.7223,-31.182 12.397,-84.731 15.768,-126.5 1.945,-24.102 4.0864,-75.108 3.2453,-77.3 -0.6138,-1.5993 -7.9147,-1.6921 -114.44,-1.4541 l -113.78,0.2543 0.1518,21.5 c 0.2621,37.105 4.7306,94.538 10.815,139 4.2305,30.916 8.1384,54.005 9.3445,55.211 0.8578,0.8578 5.5819,0.8328 18.916,-0.1 47.272,-3.3073 103.22,-3.1812 144.27,0.3251 8.525,0.7281 17.3,1.2653 19.5,1.1938 l 4,-0.1301 2.2022,-12 z m 428.95,-263.03 c 0.7482,-1.9501 -1.1394,-23.602 -3.7463,-42.972 -10.251,-76.165 -38.113,-150.78 -80.66,-216 -11.342,-17.386 -30.054,-42.305 -32.304,-43.019 -1.0206,-0.3239 -4.3457,0.7049 -7.6244,2.3592 -8.8346,4.4575 -39.824,17.697 -55.066,23.526 -7.4599,2.8528 -14.014,5.9006 -14.564,6.7729 -0.7576,1.2011 0.7043,5.2001 6.0221,16.474 34.02,72.119 54.081,150.55 60.588,236.89 l 1.206,16 20.5,0.5314 c 11.275,0.2922 39.527,0.6297 62.781,0.75 37.143,0.192 42.353,0.033 42.868,-1.3097 z m -189.86,-8.1627 c 0.3516,-9.949 -2.9083,-43.809 -6.3839,-66.309 -9.1437,-59.193 -25.563,-114.46 -50.285,-169.27 -1.6792,-3.7227 -3.6428,-6.9948 -4.3636,-7.2714 -0.7207,-0.2766 -9.3982,1.7081 -19.284,4.4102 -9.8852,2.7022 -27.262,6.9836 -38.615,9.5142 -19.681,4.3869 -58.186,11.616 -61.874,11.616 -4.2759,0 -4.3277,1.9777 -0.6219,23.712 9.9605,58.417 16.163,119.75 18.23,180.29 0.3662,10.725 1.1151,20.065 1.6642,20.756 0.7894,0.993 17.772,1.2024 81.121,1 l 80.123,-0.2559 0.2895,-8.191 z m -505.59,-2.309 c 0.3865,-5.225 1.4093,-22.426 2.273,-38.224 2.7482,-50.272 7.9244,-96.186 16.471,-146.11 2.9008,-16.942 4.4952,-28.794 4.0005,-29.737 -0.5522,-1.0523 -3.5542,-1.9716 -9.1351,-2.7974 -22.524,-3.3329 -69.496,-13.778 -97.706,-21.727 -6.8477,-1.9295 -13.585,-3.3732 -14.972,-3.2083 -2.1735,0.2584 -3.2724,1.958 -7.9531,12.3 -16.044,35.449 -30.126,76.727 -39.063,114.5 -8.9252,37.724 -15.774,84.587 -16.368,112 l -0.2494,11.5 62,0.5218 c 34.1,0.287 70.55,0.512 81,0.5 l 19,-0.022 0.7027,-9.5 z m 285.14,-14.5 c -0.312,-46.269 -6.1186,-110.07 -15.472,-170 -1.7248,-11.051 -3.7145,-20.634 -4.4469,-21.418 -1.1358,-1.2146 -3.6575,-1.2314 -17.622,-0.1174 -37.031,2.9539 -120.5,2.3765 -156.18,-1.0806 -8.8179,-0.8543 -11.129,-0.8011 -12.197,0.2807 -2.1215,2.149 -9.3359,47.891 -13.853,87.835 -5.6726,50.158 -10.335,125.9 -7.8991,128.34 0.369,0.369 51.782,0.5565 114.25,0.4166 l 113.58,-0.2542 -0.1619,-24 z m -511.12,17.5 c 0.3929,-3.025 1.4272,-13.825 2.2984,-24 6.4774,-75.653 27.162,-152.21 59.968,-221.96 5.5567,-11.814 7.4792,-16.879 6.8099,-17.94 -0.513,-0.8132 -9.0007,-4.6938 -18.862,-8.6236 -9.8609,-3.9297 -26.497,-11.044 -36.969,-15.81 -10.472,-4.7658 -19.775,-8.6651 -20.673,-8.6651 -2.8556,0 -25.629,30.464 -40.247,53.84 -42.351,67.721 -67.872,141.02 -77,221.16 -1.854,16.277 -1.9644,25.176 -0.3325,26.808 0.9229,0.9229 15.714,1.1468 62.75,0.95 l 61.542,-0.2576 0.7144,-5.5 z m 460.79,-266.11 c 9.625,-0.6107 17.911,-1.495 18.413,-1.9652 1.1629,-1.0884 -8.452,-39.003 -17.48,-68.928 -10.397,-34.464 -23.562,-70.415 -36.436,-99.5 -9.9778,-22.54201 -24.381,-50.500011 -26.017,-50.500011 -2.0489,0 -3.9515,3.2648 -15.443,26.5 -25.081,50.712011 -45.675,107.570011 -62.489,172.540011 -2.436,9.4115 -4.1956,17.72 -3.9103,18.464 0.2853,0.7435 2.171,1.5968 4.1904,1.8961 3.9824,0.5903 35.14,2.4835 49.672,3.0182 15.701,0.5777 71.328,-0.3669 89.5,-1.5198 z m 102.5,-12.522 c 32.522,-5.8594 75.438,-15.908 77.73,-18.201 1.3015,-1.3015 -0.7825,-5.0764 -12.514,-22.67 -41.516,-62.257 -93.51,-114.82 -154.79,-156.470011 -13.028,-8.8566 -15.239,-9.9512 -16.378,-8.1083 -0.312,0.5048 3.4324,8.9423 8.321,18.75 25.196,50.549011 46.916,109.510011 63.11,171.330011 2.2333,8.525 4.5038,16.54 5.0456,17.81 1.1643,2.7308 0.4439,2.7905 29.473,-2.4395 z m -300.78,2.3791 c 0.5287,-0.6875 2.1915,-5.975 3.695,-11.75 16.282,-62.535 39.06,-124.02 65.526,-176.880011 10.172,-20.315 10.477,-22.444 2.5977,-18.14 -6.2227,3.3993 -28.885,19.371 -42.535,29.978001 -32.028,24.88701 -62.389,54.22501 -88.523,85.54201 -17.827,21.362 -47.477,63.575 -47.477,67.594 0,1.1543 1.0019,2.3367 2.445,2.8854 10.95,4.1631 90.345,21.357 101.18,21.912 1.1701,0.06 2.5601,-0.4535 3.0887,-1.141 z m 451.83,-43.796 c 21.209,-8.0352 44.2,-17.839 45.957,-19.596 0.7788,-0.7787 1.1798,-2.0313 0.8912,-2.7834 -0.5941,-1.5481 -19.823,-18.87 -31.89,-28.729 -20.166,-16.474 -48.304,-35.846 -71,-48.881 -15.315,-8.7959 -48.322,-24.791 -64.828,-31.415 -21.885,-8.783111 -22.844,-7.53691 -5.9219,7.6956 36.279,32.657 72.182,74.464 99.623,116 4.9958,7.5625 9.5618,13.75 10.147,13.75 0.585,0 8.2448,-2.7207 17.022,-6.046 z m -604.34,-9.704 c 21.571,-31.926 43.485,-58.733 70.795,-86.601 10.175,-10.383 23.562,-23.394 29.75,-28.914 16.684,-14.884011 15.45,-15.921011 -7.9207,-6.6592 -51.945,20.587 -105.03,52.848 -148.33,90.151 -13.224,11.392 -18.654,17.21 -17.898,19.179 0.892,2.3246 57.442,26.275 62.606,26.515 1.117,0.052 4.9201,-4.6754 10.998,-13.671 z"
       id="path3197-1-4"
       sodipodi:nodetypes="cscsscccsccccsccccscccccscccscsssssccccccccccsscccccccccscccccccssccccscsscsscssccccccscsscscccccccssscscsscsccccscsscscsssccccscscsscsscccccsscssccccsscccscccsssscsccccsccsssssccssccccscsscscsccccsscscscscscccccsssscccscccccccscccccccccssacccccccscscscccsccccccc" />
  </g>
  <path
     inkscape:connector-curvature="0"
     id="path3273"
     style="fill:#000000"
     d="m 7182.5622,1683.9902 c 51.937,-7.2237 87.913,-41.97 98.104,-94.75 2.2705,-11.759 2.2636,-32.895 -0.015,-44.556 -10.693,-54.731 -46.864,-88.899 -101.12,-95.522 -13.263,-1.6189 -179.67,-1.531 -181.3,0.096 -1.7423,1.7423 -1.7423,232.86 0,234.6 1.6045,1.6045 172.86,1.7273 184.33,0.1321 z m -419.53,38.068 0,-493 189.75,0.01 c 113.86,0.01 197.55,0.4128 209.25,1.018 117.76,6.0901 210.1,41.999 275.02,106.95 55.642,55.668 84.648,124.57 88.97,211.35 3.4283,68.819 -11.667,135.39 -42.004,185.24 -28.263,46.441 -72.544,86.634 -123.74,112.31 -5.7228,2.8708 -10.25,5.7646 -10.25,6.5519 0,0.7755 48.427,82.109 107.62,180.74 59.188,98.632 107.84,179.89 108.11,180.58 0.3917,0.9961 -26.122,1.25 -130.55,1.25 h -131.04 l -91.813,-160.75 -91.812,-160.75 -60.388,-0.2579 c -43.771,-0.1869 -60.763,0.053 -61.75,0.8725 -1.1388,0.9451 -1.3619,27.318 -1.3619,161.01 v 159.88 h -117 -117 v -493 z" />
  <path
     inkscape:connector-curvature="0"
     id="path3277"
     style="fill:#000000"
     d="m 6015.0306,1986.8728 c 33.995,-5.687 57.84,-13.203 85,-26.794 57.465,-28.755 98.16,-73.714 121.42,-134.14 12.312,-31.984 17.474,-60.013 18.27,-99.212 0.5647,-27.782 -0.8133,-45.861 -5.2153,-68.42 -12.241,-62.736 -46.111,-120.94 -91.65,-157.5 -37.482,-30.091 -80.095,-48.729 -129.83,-56.783 -13.187,-2.1357 -16.048,-2.1946 -123.34,-2.5396 -82.916,-0.2666 -110.18,-0.066 -111.25,0.8182 -1.2089,1.0033 -1.4114,40.155 -1.4114,272.85 0,214.84 0.2594,271.94 1.24,272.92 0.976,0.976 25.194,1.1682 113.75,0.9027 101.66,-0.3047 113.52,-0.5066 123.01,-2.0937 z m -472,-271.62 0,-493.03 221.25,0.01 c 137.08,0 228.48,0.3928 240.25,1.0242 107.58,5.7696 206.15,40.038 286.05,99.442 36.33,27.013 72.541,63.103 99.038,98.706 35.63,47.876 62.153,103.42 77.441,162.19 11.135,42.803 15.768,77.576 16.669,125.13 0.6046,31.884 -0.345,52.045 -3.752,79.655 -16.107,130.53 -80.564,242.17 -184.4,319.37 -65.704,48.854 -146.97,81.626 -234.05,94.379 -39.464,5.7799 -24.398,5.4685 -281.75,5.8228 l -236.75,0.3258 v -493.03 z" />
</svg>
