<?xml version="1.0" encoding="UTF-8" standalone="no"?>
<!-- Created with Inkscape (http://www.inkscape.org/) -->
<svg id="svg3021" xmlns:rdf="http://www.w3.org/1999/02/22-rdf-syntax-ns#" xmlns="http://www.w3.org/2000/svg" viewBox="0 0 1166.9 1167.5" height="100%" width="100%" version="1.1" xmlns:cc="http://creativecommons.org/ns#" xmlns:dc="http://purl.org/dc/elements/1.1/">
 <metadata id="metadata3026">
  <rdf:RDF>
   <cc:Work rdf:about="">
    <dc:format>image/svg+xml</dc:format>
    <dc:type rdf:resource="http://purl.org/dc/dcmitype/StillImage"/>
    <dc:title/>
   </cc:Work>
  </rdf:RDF>
 </metadata>
 <g id="layer1" transform="translate(206.28253,128.55448)">
  <path id="path3197-1-4-5" fill="#1c1c1c" d="m340.06,1037.3c-78.71-5.6803-149.82-24.683-219-58.522-171.08-83.684-290.97-246.51-319.91-434.47-4.3459-28.228-5.6789-45.112-6.2765-79.5-0.6376-36.687,0.6738-59.447,5.2721-91.5,19.878-138.57,87.954-264.03,193.41-356.44,163.88-143.63,393.7-183.72,596.5-104.06,110.36,43.347,206.16,120.65,272.04,219.5,14.098,21.154,24.052,38.471,36.79,64,34.402,68.949,53.594,138.88,59.66,217.38,1.3667,17.689,1.3704,67.179,0.01,84.123-11.68,145.08-71.572,273.53-174.62,374.54-43.308,42.447-89.333,75.396-143.87,103-65.422,33.109-130,52.065-204.5,60.024-22.076,2.3585-74.795,3.4235-95.5,1.9294zm49.311-82.739c17.817-36.018,29.951-65.583,43.198-105.25,12.54-37.552,26.081-87.31,24.257-89.134-3.6758-3.6758-106.48-5.6008-143.77-2.6919l-17,1.3264-0.3008,2.5881c-0.1654,1.4234,1.7424,10.724,4.2397,20.669,15.639,62.275,35.937,119.1,61.076,170.97,9.9727,20.579,12.774,25.272,15.085,25.272,0.9137,0,5.8768-8.9221,13.212-23.75zm60.398,13.651c31.382-20.919,57.011-42.041,85.369-70.355,22.449-22.414,37.332-39.428,54.279-62.046,10.228-13.651,30.143-43.068,30.143-44.526,0-1.9128-4.3503-3.4319-24.139-8.4296-33.911-8.5644-81.205-17.601-82.956-15.85-0.4981,0.4981-3.5651,10.558-6.8156,22.356-17.574,63.784-40.58,124.45-65.184,171.89-6.5704,12.669-7.7927,16.995-4.4381,15.708,0.798-0.3062,6.9817-4.2436,13.742-8.7498zm-132.78,7.2156c0.3003-0.4859-4.3583-10.948-10.352-23.25-17.509-35.932-31.79-71.471-44.55-110.87-6.0708-18.742-15.031-49.809-18.604-64.5-1.2037-4.95-2.7315-9.5869-3.395-10.304-0.9886-1.0687-4.0798-0.8294-17.116,1.3251-29.343,4.8491-82.096,16.635-87.57,19.564-1.0123,0.5417-1.8405,1.8088-1.8405,2.8158,0,2.2171,19.169,31.24,31.207,47.25,38.503,51.206,83.744,94.309,137.21,130.73,11.666,7.9462,13.903,9.0247,15.009,7.2354zm253.92-31.722c57.999-23.204,108.61-54.446,155.37-95.92,11.844-10.503,13.542-12.427,12.484-14.139-1.6708-2.7034-61.869-26.818-64.377-25.789-0.7317,0.3004-5.0712,6.1457-9.6433,12.99-28.783,43.085-68.91,88.666-106.44,120.9-3.1625,2.7169-5.75,5.5289-5.75,6.249,0,2.3592,4.1363,1.3909,18.35-4.2958zm-372.35,3.2857c0-0.7257-5.6814-6.4632-12.625-12.75-34.376-31.123-67.271-69.306-95.875-111.29-9.1222-13.388-11.458-16.197-13.68-16.454-4.6652-0.5391-62.133,22.576-63.229,25.432-0.381,0.9931,1.8866,3.8284,6.6656,8.3342,26.393,24.884,63.322,52.156,96.243,71.074,23.202,13.333,74.28,36.841,80.25,36.934,1.2375,0.019,2.25-0.5588,2.25-1.2845zm588.75-163.45c7.1525-8.615,20.847-27.54,29.488-40.75,46.877-71.664,74.775-151.55,83.238-238.35,1.2194-12.508,1.3197-16.682,0.4267-17.758-0.9846-1.1864-10.896-1.3663-63.289-1.1491l-62.121,0.2575-0.708,7.5c-0.3894,4.125-1.4284,15.307-2.3089,24.849-7.0816,76.742-27.678,151.34-61.575,223.03-5.351,11.316-6.0446,13.405-4.8285,14.544,0.781,0.7315,9.5201,4.5652,19.42,8.5194,9.9,3.9542,26.1,10.936,36,15.514,9.9,4.5787,18.971,8.3751,20.157,8.4364,1.4307,0.074,3.4846-1.4877,6.1004-4.6384zm-797.32-5.703c13.563-6.1415,47.103-19.892,55.816-22.883,0.9625-0.3305,1.75-1.4223,1.75-2.4264s-3.3067-9.0057-7.3482-17.781c-31.069-67.463-50.773-139.87-57.584-211.6-1.1151-11.744-2.374-25.402-2.7977-30.352l-0.7704-9-62.321-0.8786c-40.55-0.5717-62.664-0.5364-63.301,0.101-0.6396,0.6396-0.6065,5.4576,0.095,13.879,8.4415,101.3,43.351,193.42,103.89,274.15,9.4466,12.596,11.924,15.318,13.594,14.934,1.1235-0.2582,9.6632-3.9201,18.977-8.1375zm662-46.408c1.3547-2.6734,5.2364-11.336,8.6259-19.25,26.563-62.022,43.173-128.64,49.462-198.39,0.8927-9.9,1.479-20.25,1.3029-23l-0.3202-5-80-0.6909c-61.329-0.5297-80.278-0.413-81.19,0.5-0.7844,0.7852-1.5588,9.1973-2.2728,24.691-2.8959,62.836-9.7363,125.59-19.444,178.38-1.957,10.642-2.9998,18.771-2.526,19.691,0.5412,1.0512,3.5448,1.9812,9.1196,2.8239,23.105,3.4924,87.865,18.1,106.31,23.98,6.5705,2.0944,8.271,1.5137,10.929-3.7325zm-528.93-1.0066c30.472-8.0468,65.797-15.61,92.363-19.775,7.3612-1.1541,11.548-2.2637,11.888-3.151,0.2891-0.7533-1.3359-12.47-3.6111-26.038-9.0887-54.2-14.793-110.14-17.149-168.17-0.6142-15.125-1.3002-28.065-1.5246-28.756-0.3239-0.997-17.063-1.2032-81.187-1l-80.779,0.2559-0.3483,4.5c-0.7549,9.7523,3.5935,52.688,7.9503,78.5,8.9163,52.826,24.128,104.22,44.638,150.81,6.8714,15.609,8.45,18.062,11.115,17.273,0.9045-0.2679,8.3946-2.2695,16.645-4.4482zm349.2-40.633c5.7223-31.182,12.397-84.731,15.768-126.5,1.945-24.102,4.0864-75.108,3.2453-77.3-0.6138-1.5993-7.9147-1.6921-114.44-1.4541l-113.78,0.2543,0.1518,21.5c0.2621,37.105,4.7306,94.538,10.815,139,4.2305,30.916,8.1384,54.005,9.3445,55.211,0.8578,0.8578,5.5819,0.8328,18.916-0.1,47.272-3.3073,103.22-3.1812,144.27,0.3251,8.525,0.7281,17.3,1.2653,19.5,1.1938l4-0.1301,2.2022-12zm428.95-263.03c0.7482-1.9501-1.1394-23.602-3.7463-42.972-10.251-76.165-38.113-150.78-80.66-216-11.342-17.386-30.054-42.305-32.304-43.019-1.0206-0.3239-4.3457,0.7049-7.6244,2.3592-8.8346,4.4575-39.824,17.697-55.066,23.526-7.4599,2.8528-14.014,5.9006-14.564,6.7729-0.7576,1.2011,0.7043,5.2001,6.0221,16.474,34.02,72.119,54.081,150.55,60.588,236.89l1.206,16,20.5,0.5314c11.275,0.2922,39.527,0.6297,62.781,0.75,37.143,0.192,42.353,0.033,42.868-1.3097zm-189.86-8.16c0.3516-9.949-2.9083-43.809-6.3839-66.309-9.1437-59.193-25.563-114.46-50.285-169.27-1.6792-3.7227-3.6428-6.9948-4.3636-7.2714-0.7207-0.2766-9.3982,1.7081-19.284,4.4102-9.8852,2.7022-27.262,6.9836-38.615,9.5142-19.681,4.3869-58.186,11.616-61.874,11.616-4.2759,0-4.3277,1.9777-0.6219,23.712,9.9605,58.417,16.163,119.75,18.23,180.29,0.3662,10.725,1.1151,20.065,1.6642,20.756,0.7894,0.993,17.772,1.2024,81.121,1l80.123-0.2559,0.2895-8.191zm-505.59-2.31c0.3865-5.225,1.4093-22.426,2.273-38.224,2.7482-50.272,7.9244-96.186,16.471-146.11,2.9008-16.942,4.4952-28.794,4.0005-29.737-0.5522-1.0523-3.5542-1.9716-9.1351-2.7974-22.524-3.3329-69.496-13.778-97.706-21.727-6.8477-1.9295-13.585-3.3732-14.972-3.2083-2.1735,0.2584-3.2724,1.958-7.9531,12.3-16.044,35.449-30.126,76.727-39.063,114.5-8.9252,37.724-15.774,84.587-16.368,112l-0.2494,11.5,62,0.5218c34.1,0.287,70.55,0.512,81,0.5l19-0.022,0.7027-9.5zm285.14-14.5c-0.312-46.269-6.1186-110.07-15.472-170-1.7248-11.051-3.7145-20.634-4.4469-21.418-1.1358-1.2146-3.6575-1.2314-17.622-0.1174-37.031,2.9539-120.5,2.3765-156.18-1.0806-8.8179-0.8543-11.129-0.8011-12.197,0.2807-2.1215,2.149-9.3359,47.891-13.853,87.835-5.6726,50.158-10.335,125.9-7.8991,128.34,0.369,0.369,51.782,0.5565,114.25,0.4166l113.58-0.2542-0.1619-24zm-511.12,17.5c0.3929-3.025,1.4272-13.825,2.2984-24,6.4774-75.653,27.162-152.21,59.968-221.96,5.5567-11.814,7.4792-16.879,6.8099-17.94-0.513-0.8132-9.0007-4.6938-18.862-8.6236-9.8609-3.9297-26.497-11.044-36.969-15.81-10.472-4.7658-19.775-8.6651-20.673-8.6651-2.8556,0-25.629,30.464-40.247,53.84-42.351,67.721-67.872,141.02-77,221.16-1.854,16.277-1.9644,25.176-0.3325,26.808,0.9229,0.9229,15.714,1.1468,62.75,0.95l61.542-0.2576,0.7144-5.5zm460.79-266.11c9.625-0.6107,17.911-1.495,18.413-1.9652,1.1629-1.0884-8.452-39.003-17.48-68.928-10.397-34.464-23.562-70.415-36.436-99.5-9.9778-22.542-24.381-50.5-26.017-50.5-2.0489,0-3.9515,3.2648-15.443,26.5-25.07,50.715-45.66,107.57-62.48,172.54-2.436,9.4115-4.1956,17.72-3.9103,18.464,0.2853,0.7435,2.171,1.5968,4.1904,1.8961,3.9824,0.5903,35.14,2.4835,49.672,3.0182,15.701,0.5777,71.328-0.3669,89.5-1.5198zm102.5-12.522c32.522-5.8594,75.438-15.908,77.73-18.201,1.3015-1.3015-0.7825-5.0764-12.514-22.67-41.516-62.257-93.51-114.82-154.79-156.47-13.028-8.8566-15.239-9.9512-16.378-8.1083-0.312,0.5048,3.4324,8.9423,8.321,18.75,25.196,50.549,46.916,109.51,63.11,171.33,2.2333,8.525,4.5038,16.54,5.0456,17.81,1.1643,2.7308,0.4439,2.7905,29.473-2.4395zm-300.78,2.3791c0.5287-0.6875,2.1915-5.975,3.695-11.75,16.282-62.535,39.06-124.02,65.526-176.88,10.172-20.315,10.477-22.444,2.5977-18.14-6.2227,3.3993-28.885,19.371-42.535,29.978-32.028,24.887-62.389,54.225-88.523,85.542-17.827,21.362-47.477,63.575-47.477,67.594,0,1.1543,1.0019,2.3367,2.445,2.8854,10.95,4.1631,90.345,21.357,101.18,21.912,1.1701,0.06,2.5601-0.4535,3.0887-1.141zm451.83-43.801c21.209-8.0352,44.2-17.839,45.957-19.596,0.7788-0.7787,1.1798-2.0313,0.8912-2.7834-0.5941-1.5481-19.823-18.87-31.89-28.729-20.166-16.474-48.304-35.846-71-48.881-15.315-8.7959-48.322-24.791-64.828-31.415-21.885-8.7831-22.844-7.5369-5.9219,7.6956,36.279,32.657,72.182,74.464,99.623,116,4.9958,7.5625,9.5618,13.75,10.147,13.75,0.585,0,8.2448-2.7207,17.022-6.046zm-604.34-9.704c21.58-31.926,43.49-58.733,70.8-86.601,10.175-10.383,23.562-23.394,29.75-28.914,16.684-14.884,15.45-15.921-7.9207-6.6592-51.945,20.587-105.03,52.848-148.33,90.151-13.224,11.392-18.654,17.21-17.898,19.179,0.892,2.3246,57.442,26.275,62.606,26.515,1.117,0.052,4.9201-4.6754,10.998-13.671z"/>
 </g>
</svg>
